<svg width="59" height="45" viewBox="0 0 59 45" fill="none" xmlns="http://www.w3.org/2000/svg">
<g clip-path="url(#clip0)">
<path d="M19.5908 36.8931C20.3663 37.5134 21.6609 37.5184 22.4684 36.9042C23.2485 36.3108 23.2524 35.3181 22.4768 34.72L7.92962 23.4752L56.0769 23.6623C57.1993 23.6652 58.094 22.9846 58.0974 22.124C58.1007 21.2634 57.2114 20.5536 56.089 20.5493L7.94171 20.3622L22.5758 9.2516C23.3561 8.63731 23.3599 7.64321 22.5844 7.04512C21.7817 6.42467 20.4853 6.41964 19.7068 7.03394L1.60828 20.8006C0.800903 21.3939 0.797046 22.3866 1.59979 22.9848L19.5908 36.8931Z" fill="#828282"/>
</g>
<defs>
<clipPath id="clip0">
<rect width="57.0976" height="43.7824" fill="white" transform="translate(58.0125 44.0039) rotate(-179.777)"/>
</clipPath>
</defs>
</svg>
